# xmcd CD database file
#
# Track frame offsets:
#	150
#	20444
#	40585
#	59259
#	78519
#	92683
#	109646
#	128774
#	151686
#	170807
#	185479
#	204864
#	220653
#	238509
#
# Disc length: 3386 seconds
#
# Revision: 0
# Processed by: cddbd v1.5.1PL2 Copyright (c) Steve Scherf et al.
# Submitted via: CDex 1.51
#
DISCID=aa0d380e
DTITLE=The Crawlers - Queen of the Blues
DYEAR=1992
DGENRE=Blues
TTITLE0=Ain't It Enough?
TTITLE1=Alabama Nights
TTITLE2=Queen of the Blues
TTITLE3=Mississippi Mud
TTITLE4=Rovin' Gambler
TTITLE5=Train Keeps Rollin'
TTITLE6=6:09
TTITLE7=Stop Your Running
TTITLE8=Nothing But the Blues
TTITLE9=Hang Tuff
TTITLE10=Seein' Is Believin'
TTITLE11=Local Rock 'n' Roll Band
TTITLE12=Night Is Calling
TTITLE13=Good Time Music
EXTD=YEAR: 1992
EXTT0=
EXTT1=
EXTT2=
EXTT3=
EXTT4=
EXTT5=
EXTT6=
EXTT7=
EXTT8=
EXTT9=
EXTT10=
EXTT11=
EXTT12=
EXTT13=
PLAYORDER=
